<?xml version="1.0" encoding="UTF-8"?>
<svg xmlns="http://www.w3.org/2000/svg" width="1024" height="1024" viewBox="0 0 1024 1024">
  <rect width="1024" height="1024" rx="180" fill="#F96C40"/>
  <g transform="translate(112, 230) scale(5.3)">
    <path fill-rule="evenodd" clip-rule="evenodd" d="M138.436 32.7838C142.482 34.3339 145.418 36.4575 147.258 39.1778C149.084 41.8904 150 45.2618 150 49.2997C150 54.291 148.517 58.6234 145.542 62.3125C142.575 66.0017 138.405 68.877 133.023 70.9231C127.656 72.9692 121.583 74 114.251 74C106.92 74 100.458 72.9692 94.8664 70.9231C94.3499 70.7352 91.9312 69.6142 90.6855 69.0332L89.6396 72.4267H64.3212L55.6586 36.4283L46.9323 72.4267H21.7148L0 1.44934H20.8605L35.0828 51.6995L45.5343 1.44934H65.8279L76.3107 51.5721L81.1927 34.327C78.7056 31.1866 77.462 27.3462 77.462 22.8092C77.462 17.8877 78.8988 13.7181 81.7801 10.3157C84.6459 6.90553 88.6999 4.34018 93.9189 2.59635C99.1224 0.868035 105.343 0 112.17 0C118.997 0 125.062 0.961039 130.374 2.88312C135.687 4.81294 139.904 7.5333 143.034 11.0674C146.163 14.6093 147.849 18.7015 148.105 23.3749H128.192C127.943 21.6699 127.128 20.2051 125.769 18.9728C124.418 17.7405 122.569 16.8027 120.231 16.1284C117.886 15.4696 115.075 15.1364 111.789 15.1364C107.363 15.1364 103.86 15.7254 101.266 16.8957C98.672 18.0582 97.375 19.7788 97.375 22.0419C97.375 23.6927 98.1439 25.018 99.6971 26.0256C101.25 27.0331 104.039 27.7306 108.093 28.1026L122.22 29.5209C128.984 30.1565 134.39 31.2493 138.436 32.7838ZM83.4104 36.6571C85.5 40 91.549 44.2845 97.8838 45.6774L96.0278 51.6992C100.5 56.5 107.234 58.8636 114.64 58.8636C119.439 58.8636 123.237 58.2436 126.01 57.0113C128.798 55.779 130.188 53.9732 130.188 51.5706C130.188 49.7415 129.388 48.331 127.819 47.3079C126.235 46.3004 123.206 45.5796 118.709 45.1378L105.436 43.9055C95.6353 43.022 88.5213 40.8054 84.1022 37.2403C83.8653 37.0494 83.6347 36.855 83.4104 36.6571Z" fill="#F8FBFD"/>
  </g>
</svg>
